<mxfile host="app.diagrams.net" modified="2022-03-01T06:21:30.756Z" agent="5.0 (Windows NT 10.0; Win64; x64) AppleWebKit/537.36 (KHTML, like Gecko) Chrome/98.0.4758.102 Safari/537.36" etag="c-EpazEzn2HGPjgAx5Nb" version="16.6.4" type="github">
  <diagram id="3Iqp5b6yRiCohmwqsi38" name="Page-1">
    <mxGraphModel dx="1278" dy="575" grid="1" gridSize="10" guides="1" tooltips="1" connect="1" arrows="1" fold="1" page="1" pageScale="1" pageWidth="827" pageHeight="1169" math="0" shadow="0">
      <root>
        <mxCell id="0" />
        <mxCell id="1" parent="0" />
        <mxCell id="hdYXAlNNzll_5eJYR-3d-3" style="edgeStyle=orthogonalEdgeStyle;rounded=0;orthogonalLoop=1;jettySize=auto;html=1;entryX=0.5;entryY=0;entryDx=0;entryDy=0;" edge="1" parent="1" source="hdYXAlNNzll_5eJYR-3d-1" target="hdYXAlNNzll_5eJYR-3d-2">
          <mxGeometry relative="1" as="geometry" />
        </mxCell>
        <mxCell id="hdYXAlNNzll_5eJYR-3d-1" value="Başla" style="ellipse;whiteSpace=wrap;html=1;" vertex="1" parent="1">
          <mxGeometry x="330" y="10" width="120" height="80" as="geometry" />
        </mxCell>
        <mxCell id="hdYXAlNNzll_5eJYR-3d-5" style="edgeStyle=orthogonalEdgeStyle;rounded=0;orthogonalLoop=1;jettySize=auto;html=1;exitX=0.5;exitY=1;exitDx=0;exitDy=0;entryX=0.5;entryY=0;entryDx=0;entryDy=0;" edge="1" parent="1" source="hdYXAlNNzll_5eJYR-3d-2">
          <mxGeometry relative="1" as="geometry">
            <mxPoint x="390" y="250" as="targetPoint" />
          </mxGeometry>
        </mxCell>
        <mxCell id="hdYXAlNNzll_5eJYR-3d-2" value="A sayısını girin" style="shape=parallelogram;perimeter=parallelogramPerimeter;whiteSpace=wrap;html=1;fixedSize=1;" vertex="1" parent="1">
          <mxGeometry x="330" y="140" width="120" height="60" as="geometry" />
        </mxCell>
        <mxCell id="hdYXAlNNzll_5eJYR-3d-18" style="edgeStyle=orthogonalEdgeStyle;rounded=0;orthogonalLoop=1;jettySize=auto;html=1;entryX=0.5;entryY=0;entryDx=0;entryDy=0;" edge="1" parent="1" source="hdYXAlNNzll_5eJYR-3d-16" target="hdYXAlNNzll_5eJYR-3d-17">
          <mxGeometry relative="1" as="geometry" />
        </mxCell>
        <mxCell id="hdYXAlNNzll_5eJYR-3d-16" value="B sayısını girin" style="shape=parallelogram;perimeter=parallelogramPerimeter;whiteSpace=wrap;html=1;fixedSize=1;" vertex="1" parent="1">
          <mxGeometry x="330" y="250" width="120" height="60" as="geometry" />
        </mxCell>
        <mxCell id="hdYXAlNNzll_5eJYR-3d-17" value="(A+B)/2" style="shape=document;whiteSpace=wrap;html=1;boundedLbl=1;" vertex="1" parent="1">
          <mxGeometry x="330" y="350" width="120" height="80" as="geometry" />
        </mxCell>
      </root>
    </mxGraphModel>
  </diagram>
</mxfile>
